{
  "asset": {
    "version": "2.0",
    "generator": "THREE.GLTFExporter"
  },
  "scenes": [
    {
      "nodes": [
        0
      ]
    }
  ],
  "scene": 0,
  "nodes": [
    {
      "children": [
        4
      ],
      "matrix": [
        0.01,
        0,
        0,
        0,
        0,
        0.01,
        0,
        0,
        0,
        0,
        0.01,
        0,
        0,
        0,
        0,
        1
      ]
    },
    {
      "matrix": [
        1,
        0,
        0,
        0,
        0,
        1,
        2.220446049250313e-16,
        0,
        0,
        -2.220446049250313e-16,
        1,
        0,
        944.1204910392155,
        21.08139404445666,
        31.62586636420933,
        1
      ],
      "name": "Text",
      "mesh": 0
    },
    {
      "matrix": [
        0.7071067811865479,
        -5.551115123125783e-17,
        -0.707106781186547,
        0,
        -0.4082482904638628,
        0.8164965809277259,
        -0.40824829046386335,
        0,
        0.5773502691896253,
        0.5773502691896258,
        0.5773502691896261,
        0,
        1491.4346401501693,
        595.0445770629746,
        584.8625508718364,
        1
      ],
      "camera": 0
    },
    {
      "matrix": [
        1,
        0,
        0,
        0,
        0,
        1,
        0,
        0,
        0,
        0,
        1,
        0,
        0,
        1,
        0,
        1
      ],
      "name": "Default Ambient Light"
    },
    {
      "name": "Scene",
      "children": [
        1,
        2,
        3
      ]
    }
  ],
  "bufferViews": [
    {
      "buffer": 0,
      "byteOffset": 0,
      "byteLength": 23160,
      "target": 34962,
      "byteStride": 12
    },
    {
      "buffer": 0,
      "byteOffset": 23160,
      "byteLength": 23160,
      "target": 34962,
      "byteStride": 12
    },
    {
      "buffer": 0,
      "byteOffset": 46320,
      "byteLength": 15440,
      "target": 34962,
      "byteStride": 8
    },
    {
      "buffer": 0,
      "byteOffset": 61760,
      "byteLength": 8208,
      "target": 34963
    }
  ],
  "buffers": [
    {
      "byteLength": 69968,
      "uri": "data:application/octet-stream;base64,"
    }
  ],
  "accessors": [
    {
      "bufferView": 0,
      "componentType": 5126,
      "count": 1930,
      "max": [
        124.8779296875,
        8.759765625,
        6
      ],
      "min": [
        -124.8779296875,
        -12.861328125,
        0
      ],
      "type": "VEC3"
    },
    {
      "bufferView": 1,
      "componentType": 5126,
      "count": 1930,
      "max": [
        1,
        1,
        1
      ],
      "min": [
        -1,
        -1,
        -1
      ],
      "type": "VEC3"
    },
    {
      "bufferView": 2,
      "componentType": 5126,
      "count": 1930,
      "max": [
        1,
        1
      ],
      "min": [
        0,
        0
      ],
      "type": "VEC2"
    },
    {
      "bufferView": 3,
      "componentType": 5123,
      "count": 4104,
      "max": [
        1929
      ],
      "min": [
        0
      ],
      "type": "SCALAR"
    }
  ],
  "meshes": [
    {
      "primitives": [
        {
          "mode": 4,
          "attributes": {
            "POSITION": 0,
            "NORMAL": 1,
            "TEXCOORD_0": 2
          },
          "extras": {
            "parameters": {
              "type": "TextGeometry",
              "width": 270,
              "height": 50,
              "depth": 6,
              "horizontalAlign": 3,
              "verticalAlign": 2,
              "fontSize": 30,
              "lineHeight": 1.2,
              "letterSpacing": 0,
              "text": {
                "textValue": "bonnichiwa"
              },
              "textTransform": 3,
              "font": "840916b3-e27a-4376-9af3-ec682bb15688",
              "extrudeBevelSize": 1,
              "extrudeBevelSegments": 1
            },
            "type": "TextGeometry"
          },
          "indices": 3
        }
      ]
    }
  ],
  "cameras": [
    {
      "type": "orthographic",
      "orthographic": {
        "xmag": 4.085122262729536,
        "ymag": 2.1236151445141638,
        "zfar": 100000,
        "znear": 0
      }
    }
  ]
}