{
  "asset": {
    "version": "2.0",
    "generator": "THREE.GLTFExporter"
  },
  "scenes": [
    {
      "nodes": [
        0
      ]
    }
  ],
  "scene": 0,
  "nodes": [
    {
      "children": [
        4
      ],
      "matrix": [
        0.01,
        0,
        0,
        0,
        0,
        0.01,
        0,
        0,
        0,
        0,
        0.01,
        0,
        0,
        0,
        0,
        1
      ]
    },
    {
      "matrix": [
        3.38,
        0,
        0,
        0,
        0,
        3.37815770827975,
        7.501016937094262e-16,
        0,
        0,
        -7.501016937094262e-16,
        3.37815770827975,
        0,
        963.1204910392155,
        9.081394044456658,
        31.62586636420933,
        1
      ],
      "name": "Text",
      "mesh": 0
    },
    {
      "matrix": [
        0.780756629733713,
        1.319072862049353e-8,
        -0.6248352463864805,
        0,
        -0.2906624205632463,
        0.8852148086259611,
        -0.3631943004255678,
        0,
        0.5531134082619661,
        0.46518248310668675,
        0.6911373344072282,
        0,
        1542.2574962691024,
        692.0082471976918,
        1550.4619770639492,
        1
      ],
      "camera": 0
    },
    {
      "matrix": [
        1,
        0,
        0,
        0,
        0,
        1,
        0,
        0,
        0,
        0,
        1,
        0,
        0,
        1,
        0,
        1
      ],
      "name": "Default Ambient Light"
    },
    {
      "name": "Scene",
      "children": [
        1,
        2,
        3
      ]
    }
  ],
  "bufferViews": [
    {
      "buffer": 0,
      "byteOffset": 0,
      "byteLength": 130848,
      "target": 34962,
      "byteStride": 12
    },
    {
      "buffer": 0,
      "byteOffset": 130848,
      "byteLength": 130848,
      "target": 34962,
      "byteStride": 12
    },
    {
      "buffer": 0,
      "byteOffset": 261696,
      "byteLength": 87232,
      "target": 34962,
      "byteStride": 8
    },
    {
      "buffer": 0,
      "byteOffset": 348928,
      "byteLength": 81972,
      "target": 34963
    }
  ],
  "buffers": [
    {
      "byteLength": 430900,
      "uri": "data:application/octet-stream;base64,"
    }
  ],
  "accessors": [
    {
      "bufferView": 0,
      "componentType": 5126,
      "count": 10904,
      "max": [
        149.1015625,
        36.41650390625,
        25
      ],
      "min": [
        -149.1015625,
        -4.162109375,
        0
      ],
      "type": "VEC3"
    },
    {
      "bufferView": 1,
      "componentType": 5126,
      "count": 10904,
      "max": [
        1,
        0.9998055696487427,
        1
      ],
      "min": [
        -1,
        -0.9998359084129333,
        -1
      ],
      "type": "VEC3"
    },
    {
      "bufferView": 2,
      "componentType": 5126,
      "count": 10904,
      "max": [
        1,
        1
      ],
      "min": [
        0,
        0
      ],
      "type": "VEC2"
    },
    {
      "bufferView": 3,
      "componentType": 5123,
      "count": 40986,
      "max": [
        10903
      ],
      "min": [
        0
      ],
      "type": "SCALAR"
    }
  ],
  "meshes": [
    {
      "primitives": [
        {
          "mode": 4,
          "attributes": {
            "POSITION": 0,
            "NORMAL": 1,
            "TEXCOORD_0": 2
          },
          "extras": {
            "parameters": {
              "type": "TextGeometry",
              "width": 350,
              "height": 100,
              "depth": 25,
              "horizontalAlign": 3,
              "verticalAlign": 1,
              "fontSize": 55,
              "lineHeight": 1.2,
              "letterSpacing": 0,
              "text": {
                "textValue": "bonnichiwa"
              },
              "textTransform": 3,
              "font": "Nova Mono_regular",
              "extrudeBevelSize": 1,
              "extrudeBevelSegments": 1
            },
            "type": "TextGeometry"
          },
          "indices": 3
        }
      ]
    }
  ],
  "cameras": [
    {
      "type": "orthographic",
      "orthographic": {
        "xmag": 17.176873246873335,
        "ymag": 8.92924760055717,
        "zfar": 100000,
        "znear": 0
      }
    }
  ]
}